General
      Complete name : Wall.Street.1987.BRRip.H264.AAC.5.1ch.Gopo.mp4
      Format : MPEG-4
      Format profile : Base Media
      Codec ID : isom
      File size : 2.00 GiB
      Duration : 2h 5mn
      Overall bit rate : 2 280 Kbps
      Encoded date : UTC 2010-02-10 16:22:21
      Tagged date : UTC 2010-02-10 16:22:21
   Video #1
      ID : 1
      Format : AVC
      Format/Info : Advanced Video Codec
      Format profile : High@L4.1
      Format settings, CABAC : Yes
      Format settings, ReFrames : 5 frames
      Codec ID : avc1
      Codec ID/Info : Advanced Video Coding
      Duration : 2h 5mn
      Bit rate mode : Variable
      Bit rate : 1 976 Kbps
      Maximum bit rate : 8 666 Kbps
      Width : 1 280 pixels
      Height : 688 pixels
      Display aspect ratio : 1.860
      Frame rate mode : Constant
      Frame rate : 23.976 fps
      Resolution : 24 bits
      Colorimetry : 4:2:0
      Scan type : Progressive
      Bits/(Pixel*Frame) : 0.094
      Stream size : 1.74 GiB (87%)
      Writing library : x264 core 84 r1416 fcf70c2
      Encoding settings : cabac=1 / ref=5 / deblock=1:0:0 / analyse=0x3:0x113 / me=hex / subme=7 / psy=1 / psy_rd=1.0:0.0 / mixed_ref=1 / me_range=16 / chroma_me=1 / trellis=0 / 8x8dct=1 / cqm=0 / deadzone=21,11 / fast_pskip=1 / chroma_qp_offset=-2 / threads=3 / sliced_threads=0 / nr=0 / decimate=1 / mbaff=0 / constrained_intra=0 / bframes=3 / b_pyramid=0 / b_adapt=1 / b_bias=0 / direct=1 / wpredb=1 / wpredp=2 / keyint=250 / keyint_min=25 / scenecut=40 / intra_refresh=0 / rc_lookahead=40 / rc=2pass / mbtree=1 / bitrate=1976 / ratetol=1.0 / qcomp=0.60 / qpmin=10 / qpmax=51 / qpstep=4 / cplxblur=20.0 / qblur=0.5 / vbv_maxrate=31250 / vbv_bufsize=31250 / ip_ratio=1.40 / aq=1:1.00
      Encoded date : UTC 2010-02-10 03:54:07
      Tagged date : UTC 2010-02-10 16:29:00
   Audio #2
      ID : 2
      Format : AAC
      Format/Info : Advanced Audio Codec
      Format version : Version 4
      Format profile : LC
      Format settings, SBR : No
      Codec ID : 40
      Duration : 2h 5mn
      Bit rate mode : Variable
      Bit rate : 301 Kbps
      Maximum bit rate : 336 Kbps
      Channel(s) : 6 channels
      Channel positions : Front: L C R, Rear: L R, LFE
      Sampling rate : 48.0 KHz
      Resolution : 16 bits
      Stream size : 271 MiB (13%)
      Encoded date : UTC 2010-02-10 16:27:35
      Tagged date : UTC 2010-02-10 16:29:00
	Sample : YES
	Subtitle : English,Romanian

PLOT


A young and impatient stockbroker is willing to do anything to get to the top, including trading on illegal inside information taken through a ruthless and greedy corporate raider whom takes the youth under his wing.
Director: Oliver Stone
CASTING 
     
      Charlie Sheen	... 	Bud Fox
	Tamara Tunie	... 	Carolyn
	Franklin Cover	... 	Dan
	Chuck Pfeiffer	... 	Chuckie (as Chuck Pfeifer)
	John C. McGinley	... 	Marvin
	Hal Holbrook	... 	Lou Mannheim
	James Karen	... 	Lynch
	Leslie Lyles	... 	Natalie
	Michael Douglas	... 	Gordon Gekko
	Faith Geer	... 	Natalie's Assistant
	Frank Adonis	... 	Charlie
	John Capodice	... 	Dominick
	Martin Sheen	... 	Carl Fox
	Suzen Murakoshi	... 	Girl in Bed
	Dani Klein	... 	Receptionist

SOURCE: Wall.Street.1987.1080p.BD9.x264-DOWN.mkv

Notes: For best performance I suggest you to use KMPlayer(find it with google) for playback
These movies were made especially for PC but with PS3 profile so for some unknown reason they don't work on PS3.If you want to test them then knock yourself out.
